<svg width="132" height="37" viewBox="0 0 132 37" fill="none" xmlns="http://www.w3.org/2000/svg">
<path fill-rule="evenodd" clip-rule="evenodd" d="M26.9301 6.67939C28.784 6.67939 30.2869 5.18416 30.2869 3.3397C30.2869 1.49523 28.784 0 26.9301 0C25.0762 0 23.5733 1.49523 23.5733 3.3397C23.5733 7.02862 20.5676 10.0191 16.8597 10.0191C15.0058 10.0191 13.5029 11.5143 13.5029 13.3588C13.5029 15.2032 15.0058 16.6985 16.8597 16.6985C20.5676 16.6985 23.5733 19.6889 23.5733 23.3779C23.5733 27.0668 20.5676 30.0573 16.8597 30.0573C15.0058 30.0573 13.5029 31.5525 13.5029 33.397C13.5029 35.2414 15.0058 36.7367 16.8597 36.7367C18.7136 36.7367 20.2165 35.2414 20.2165 33.397C20.2165 29.708 23.2223 26.7176 26.9301 26.7176C28.784 26.7176 30.2869 25.2223 30.2869 23.3779C30.2869 21.5334 28.784 20.0382 26.9301 20.0382C23.2223 20.0382 20.2165 17.0477 20.2165 13.3588C20.2165 9.66986 23.2223 6.67939 26.9301 6.67939Z" fill="black"/>
<path fill-rule="evenodd" clip-rule="evenodd" d="M13.4272 6.67939C15.2811 6.67939 16.784 5.18416 16.784 3.3397C16.784 1.49523 15.2811 0 13.4272 0C11.5733 0 10.0704 1.49523 10.0704 3.3397C10.0704 7.02862 7.06462 10.0191 3.3568 10.0191C1.50289 10.0191 0 11.5143 0 13.3588C0 15.2032 1.50289 16.6985 3.3568 16.6985C7.06462 16.6985 10.0704 19.6889 10.0704 23.3779C10.0704 27.0668 7.06462 30.0573 3.3568 30.0573C1.50289 30.0573 0 31.5525 0 33.397C0 35.2414 1.50289 36.7367 3.3568 36.7367C5.21071 36.7367 6.7136 35.2414 6.7136 33.397C6.7136 29.708 9.71939 26.7176 13.4272 26.7176C15.2811 26.7176 16.784 25.2223 16.784 23.3779C16.784 21.5334 15.2811 20.0382 13.4272 20.0382C9.71939 20.0382 6.7136 17.0477 6.7136 13.3588C6.7136 9.66986 9.71939 6.67939 13.4272 6.67939Z" fill="black"/>
<path d="M45.909 5.13762H49.5307C49.5001 2.28971 47.1697 0.363844 43.5328 0.363844C39.9569 0.363844 37.382 2.25997 37.405 5.09301C37.3973 7.40554 39.063 8.7068 41.7678 9.3091L43.4029 9.68089C45.122 10.0676 45.8937 10.5211 45.909 11.3763C45.8937 12.3057 44.9998 12.9526 43.4793 12.9526C41.806 12.9526 40.7057 12.1942 40.6217 10.7293H37C37.0458 14.2911 39.5902 15.9939 43.5251 15.9939C47.4218 15.9939 49.7293 14.2762 49.7446 11.3837C49.7293 8.95219 48.0407 7.46503 44.9539 6.80324L43.6092 6.50581C42.188 6.20838 41.2864 5.74736 41.317 4.84019C41.3246 4.00738 42.0581 3.40508 43.5251 3.40508C44.9998 3.40508 45.8097 4.052 45.909 5.13762Z" fill="black"/>
<path d="M51.6548 15.8006H62.5656V12.8114H55.4369V9.68089H62.0078V6.68427H55.4369V3.56124H62.5656V0.572046H51.6548V15.8006Z" fill="black"/>
<path d="M78.2519 0.572046H74.4774V9.34628H74.3475L68.1891 0.572046H64.9342V15.8006H68.7163V7.01144H68.8157L75.0428 15.8006H78.2519V0.572046Z" fill="black"/>
<path d="M84.0148 15.8006L85.0463 12.6032H90.4482L91.4797 15.8006H95.5446L90.2649 0.572046H85.2297L79.95 15.8006H84.0148ZM85.9479 9.8073L87.6823 4.40892H87.8046L89.5466 9.8073H85.9479Z" fill="black"/>
<path d="M97.2293 0.572046V15.8006H100.912V6.39427H101.042L104.801 15.7039H107.155L110.914 6.44632H111.044V15.8006H114.726V0.572046H110.043L106.07 10.0006H105.886L101.913 0.572046H97.2293Z" fill="black"/>
<path d="M120.47 15.8006L121.502 12.6032H126.904L127.935 15.8006H132L126.72 0.572046H121.685L116.405 15.8006H120.47ZM122.403 9.8073L124.138 4.40892H124.26L126.002 9.8073H122.403Z" fill="black"/>
<path d="M46.8412 25.3184H48.2241C48.1171 23.0058 46.0618 21.2956 43.1507 21.2956C40.2626 21.2956 38.0391 22.9835 38.0391 25.4373C38.0391 27.393 39.4603 28.6199 41.9129 29.3263L43.7849 29.8616C45.7256 30.4119 47.0551 31.1183 47.0551 32.6724C47.0551 34.5016 45.3512 35.7285 43.0132 35.7285C40.9044 35.7285 39.254 34.7395 39.1012 32.9326H37.6342C37.8023 35.3418 39.8194 37 43.0132 37C46.4056 37 48.4381 35.1336 48.4381 32.6947C48.4381 30.1665 46.1764 29.1552 44.1899 28.6124L42.5395 28.1514C41.019 27.735 39.4221 26.984 39.4221 25.3779C39.4221 23.742 40.9273 22.5448 43.1125 22.5448C45.1831 22.5448 46.6654 23.623 46.8412 25.3184Z" fill="black"/>
<path d="M64.705 29.1255C64.705 24.3591 61.8932 21.303 57.9354 21.303C53.9852 21.303 51.1734 24.3666 51.1734 29.1255C51.1734 33.8844 53.9775 36.948 57.9354 36.948C61.8932 36.948 64.705 33.8918 64.705 29.1255ZM63.3144 29.1255C63.322 33.2226 61.0222 35.6392 57.9354 35.6392C54.8409 35.6392 52.5564 33.2077 52.5564 29.1255C52.5564 25.0209 54.8638 22.6117 57.9354 22.6117C61.0222 22.6117 63.3144 25.0284 63.3144 29.1255Z" fill="black"/>
<path d="M68.1605 36.7397H69.5893V29.7427H76.5041V28.4935H69.5893V22.7605H77.2146V21.5112H68.1605V36.7397Z" fill="black"/>
<path d="M79.8201 22.7605H84.7789V36.7397H86.2077V22.7605H91.1665V21.5112H79.8201V22.7605Z" fill="black"/>
</svg>
