<svg xmlns="http://www.w3.org/2000/svg" version="1.1" xmlns:xlink="http://www.w3.org/1999/xlink" xmlns:svgjs="http://svgjs.dev/svgjs" width="1000" height="1000" viewBox="0 0 1000 1000"><rect width="1000" height="1000" fill="#ffffff"></rect><g transform="matrix(0.7,0,0,0.7,150.0000000000001,106.25)"><svg viewBox="0 0 320 360" data-background-color="#1b4571" preserveAspectRatio="xMidYMid meet" height="1125" width="1000" xmlns="http://www.w3.org/2000/svg" xmlns:xlink="http://www.w3.org/1999/xlink"><g id="tight-bounds" transform="matrix(1,0,0,1,0,0)"><svg viewBox="0 0 320 360" height="360" width="320"><g><svg></svg></g><g><svg viewBox="0 0 320 360" height="360" width="320"><g><path xmlns="http://www.w3.org/2000/svg" d="M20.961 227.22l3.726 4.658-1.863-6.056c-0.466-2.795-3.726 0.466-1.863 1.398M25.153 224.425c1.397 2.329 2.795 4.658 2.795 6.987 0 3.261 2.795 4.658 5.123 5.589-3.261-3.726-5.124-13.974-7.918-12.576M204.017 26.929c7.918 0 15.371-0.932 23.756 0.931 20.495 5.124 37.729 15.371 49.374 29.811l32.606 52.169c1.397 13.042 4.192 27.482 3.726 43.319 3.261 0 2.795-4.658 6.521-5.59-3.726 9.316-5.59 20.961-6.521 34.469-2.329-7.453 0-18.632 0.466-24.687-3.261 5.124-5.124 1.397-5.124-0.932 0.466-3.726-1.397-3.261-2.795-4.658-5.124-4.658-8.384-9.782-12.11-17.7 2.329-6.055 2.795-14.905-4.658-19.563-2.329-1.397-5.124-3.726-6.521-7.453-1.863-5.124-5.124-11.179-4.193-19.097 0.466-2.329-6.987 5.124-11.179 1.863-18.166-12.576-36.332-27.016-58.224-39.127-11.645 0-20.029-4.192-24.221-9.316-3.726-4.658-0.932-10.713 4.658-11.179 3.261 0 6.987-0.932 9.782 0.932 0.466-1.863 2.329-4.192 4.657-4.192M157.904 16.215l0.932 0.466c4.658 0.932 6.987 7.453 12.11 5.124 0 3.261 0.466 6.521-0.466 8.85-1.397 3.726-5.59 3.726-8.85 3.726-31.208-1.863-49.374 11.179-68.471 22.358-5.124 3.261-10.713 5.59-14.906 9.782-20.029 18.632-41.921 35.866-47.045 70.335l-4.192 38.195c-0.466 4.192-5.124 8.384-4.192 13.508l3.26 22.824c-3.261-3.261-5.124 0.932-4.192 2.795 0.466 1.397 2.329 6.055 5.124 1.863 3.726 6.987 7.453 20.495 12.576 26.55 15.837 18.632 36.332 35.4 53.101 52.169 4.192-0.932 7.453-0.932 8.384-3.727 1.397 2.795-1.397 5.59-3.726 6.056 7.453 4.658 15.837 8.85 27.016 9.781 14.44 0.932 27.948 3.261 40.524 6.522 6.521-1.863 13.042-2.795 20.029-3.261 2.329 0 3.726-3.726 6.521-4.658l0.466-4.658c2.795 4.192 2.329-1.397 0.466-4.192 3.261 2.795 4.192 5.124 5.589 6.987 0-1.397 3.726-6.521 3.727-0.466l0.931-6.055c1.397-0.932 1.863 5.124 3.261 0.931 1.397-4.192 4.192-0.932 6.987-2.329-0.932 1.863-0.466 5.59 2.794 3.261l3.727-3.261c2.329 5.59 6.055 3.261 7.918 2.329 20.495-13.042 40.99-28.413 60.553-43.784l-0.466 6.055 2.329-7.453c2.329 2.329 4.192 0.466 5.124-0.931 2.795-4.658 6.521-9.316 12.577-13.508-7.453 20.029-16.303 35.866-27.482 48.908l-4.658 5.59c0 3.261-0.932 7.453-4.658 7.918-1.863 0.466-5.59-0.932-8.384 1.863-1.397 1.863 3.261 5.59-0.466 2.795-3.261-2.329-6.521 0-10.248 0.932-2.795 0.932 1.863 3.726 2.795 5.589 0.932 1.863 1.863 3.726 1.398 6.056l-5.124-5.59c-6.055 3.261-9.782 9.316-14.906 13.974-2.329 1.863-1.397 5.124-1.397 7.918-3.261 0-6.987-0.932-8.85 0.932-1.397 1.863-0.932 4.658-0.932 7.453-4.658-0.466-5.124-7.453-9.315-6.056-4.192 0.932-8.85 1.397-12.577 3.727 2.795 5.59-4.658 2.329-3.726 3.26-6.987-4.192-13.042-7.453-20.495-4.658-15.837-5.124-35.4-2.795-49.84-0.931 0-2.329 0.466-4.658-0.466-5.124-0.932 2.329-3.726 1.397-3.26 1.397-8.85-6.055-17.7-9.782-27.016-14.905-8.384 0.932-16.303-3.261-18.632-5.59-6.521-6.055-13.974-2.795-20.029-4.192-13.042-3.261-17.7-16.769-19.098-26.084-0.932-4.658-4.658-6.521-6.055-6.056-6.055-19.563-15.371-37.263-22.824-55.429-1.863-4.658-1.397-9.316-1.397-14.44 2.329 0.932 4.658 0.466 4.192-2.794-2.329-15.371-7.918-27.016-13.974-38.195 3.261-15.837 3.726-34.469 11.179-48.443 6.521-12.576 18.632-19.098 27.016-29.811 2.795-3.726 2.795-8.85 5.59-12.11 9.316-9.316 18.632-19.098 28.879-27.482 4.658-3.726 10.247 0 17.234-1.397 2.329-8.384 11.645-15.837 20.495-13.508 3.726 0.932 11.179-8.85 13.508-9.782 3.726-1.397 1.863 3.726 1.863 6.987 8.85-6.987 20.961-10.713 32.14-14.906" fill="#000000" fill-rule="nonzero" stroke="none" stroke-width="1" stroke-linecap="butt" stroke-linejoin="miter" stroke-miterlimit="10" stroke-dasharray="" stroke-dashoffset="0" font-family="none" font-weight="none" font-size="none" text-anchor="none" style="mix-blend-mode: normal" data-fill-palette-color="tertiary"></path></g><g transform="matrix(1,0,0,1,64,111.18845847675568)"><svg viewBox="0 0 192 137.62308304648863" height="137.62308304648863" width="192"><g><svg viewBox="0 0 192 137.62308304648863" height="137.62308304648863" width="192"><g><svg viewBox="0 0 192 137.62308304648863" height="137.62308304648863" width="192"><g transform="matrix(1,0,0,1,0,83.1819356676558)"><svg viewBox="0 0 192 54.44114737883284" height="54.44114737883284" width="192"><g id="textblocktransform"><svg viewBox="0 0 192 54.44114737883284" height="54.44114737883284" width="192" id="textblock"><g><svg viewBox="0 0 192 54.44114737883284" height="54.44114737883284" width="192"><g transform="matrix(1,0,0,1,0,0)"><svg width="192" viewBox="3.049999952316284 -31.75 151.63999938964844 43" height="54.44114737883284" data-palette-color="#ffffff"><path d="M24.1-6.8Q25.05-6.8 25.53-6.08 26-5.35 26-4.5L26-4.5Q26-3.45 25.68-3.03 25.35-2.6 24.45-2.15L24.45-2.15Q22.35-1.15 19.25-0.55 16.15 0.05 12.6 0.05L12.6 0.05Q8.15 0.05 6.08-1.45 4-2.95 3.53-5.08 3.05-7.2 3.05-10.65L3.05-10.65Q3.05-14.35 3.35-17.93 3.65-21.5 4.4-27.05L4.4-27.05Q4.75-29.45 6.3-30.53 7.85-31.6 9.7-31.6L9.7-31.6Q11.25-31.6 14.75-31.7L14.75-31.7 19.1-31.75Q21.8-31.75 23-31.6L23-31.6Q24.5-31.3 25.23-30.93 25.95-30.55 25.95-29.65L25.95-29.65Q25.95-28.65 25.28-27.7 24.6-26.75 23.25-26.75L23.25-26.75Q21.7-26.75 18.8-26.95L18.8-26.95Q15.9-27.15 14.45-27.15L14.45-27.15Q13.2-27.15 12-27L12-27Q10.6-26.9 10-26.65 9.4-26.4 9.3-25.8L9.3-25.8Q8.6-20.65 8.6-18.2L8.6-18.2Q9.75-18.05 10.85-18.05L10.85-18.05Q12.25-18.05 13.85-18.2 15.45-18.35 15.9-18.4L15.9-18.4Q18.55-18.65 20.45-18.65L20.45-18.65Q21.55-18.65 22.13-18.25 22.7-17.85 22.7-17.15L22.7-17.15Q22.7-16.05 22.13-15.45 21.55-14.85 20.1-14.55L20.1-14.55Q18.35-14.2 15.78-14 13.2-13.8 10.75-13.8L10.75-13.8Q9.9-13.8 8.4-13.9L8.4-13.9Q8.25-10.85 8.25-8.25L8.25-8.25Q8.25-4.7 12.95-4.7L12.95-4.7Q15.45-4.7 17.1-5.05 18.75-5.4 20.9-6.05L20.9-6.05Q22.9-6.8 24.1-6.8L24.1-6.8ZM29.3-16.85Q28.9-16.85 28.57-17.18 28.25-17.5 28.25-17.95L28.25-17.95Q28.25-19.1 29.25-20.1L29.25-20.1Q29.55-20.25 30.45-20.6 31.35-20.95 32.05-20.95L32.05-20.95Q33.95-20.95 35.15-19.93 36.35-18.9 36.35-17L36.35-17Q36.35-16.45 36.15-14.65L36.15-14.65Q35.95-12.55 35.95-11.4L35.95-11.4Q35.95-7.9 36.9-5.75L36.9-5.75Q37.25-5.05 38-4.65 38.75-4.25 39.35-4.25L39.35-4.25Q40.8-4.25 41.7-4.75 42.6-5.25 43.65-6.35L43.65-6.35Q44.7-7.45 45.02-8.85 45.35-10.25 45.5-12.7L45.5-12.7Q45.6-14.3 45.7-15.05L45.7-15.05Q45.95-17.45 45.95-19.15L45.95-19.15Q45.95-20.25 46.55-20.98 47.15-21.7 48.2-21.7L48.2-21.7Q48.8-21.7 49.57-21.33 50.35-20.95 50.6-20.45L50.6-20.45Q50.9-19.95 50.9-18.8L50.9-18.8Q50.9-18.2 50.75-17.65L50.75-17.65Q50.4-16.4 50.4-14.65L50.4-14.65 50.45-12.05Q50.45-8.5 50.95-6.8L50.95-6.8Q51.2-6 51.65-5.18 52.1-4.35 52.5-3.8L52.5-3.8Q53.5-2.7 53.8-2.27 54.1-1.85 54.1-1.45L54.1-1.45Q54.1-0.85 53.52-0.33 52.95 0.2 52.3 0.2L52.3 0.2Q50.45 0.2 49.1-1.05 47.75-2.3 47.1-4.3L47.1-4.3Q45.4-2.35 43.95-1.15L43.95-1.15Q42.95-0.45 41.5-0.13 40.05 0.2 38.6 0.2L38.6 0.2Q36.65 0.2 34.65-1.4 32.65-3 31.95-5.1L31.95-5.1Q31.9-5.2 31.67-5.9 31.45-6.6 31.45-8L31.45-8Q31.45-9.85 31.65-12.65L31.65-12.65Q31.8-14.45 31.8-15.95L31.8-15.95Q31.8-16.4 31.47-16.7 31.15-17 30.75-17L30.75-17Q30.45-17 30.07-16.93 29.7-16.85 29.3-16.85L29.3-16.85ZM75.95-0.1Q77.3 0.85 77.77 2 78.25 3.15 78.25 5.2L78.25 5.2Q78.25 6.2 77.67 7.2 77.09 8.2 76.5 8.65L76.5 8.65Q71.75 11.25 67 11.25L67 11.25Q64.65 11.25 62.95 10.65 61.25 10.05 59.75 9.05L59.75 9.05Q58.75 8.3 58.12 6.98 57.5 5.65 57.5 4.35L57.5 4.35Q57.5 2.55 58.62 1.2 59.75-0.15 61.65-0.75L61.65-0.75Q61.3-1.5 61.3-2.5L61.3-2.5Q61.3-3.45 62.7-5.35L62.7-5.35Q60.3-6.15 58.92-8.2 57.55-10.25 57.55-13L57.55-13Q57.55-14.7 58.35-16.03 59.15-17.35 60.75-19.1L60.75-19.1Q61.85-20.3 63.55-20.85 65.25-21.4 67.8-21.4L67.8-21.4Q69.59-21.4 72.25-20.6L72.25-20.6Q75.4-22.8 77.8-22.8L77.8-22.8Q78.4-22.8 79.17-22.5 79.95-22.2 80.34-21.9L80.34-21.9Q80.65-21.35 80.65-20.05L80.65-20.05Q80.65-19.55 80.22-19.07 79.8-18.6 79.15-18.6L79.15-18.6 77.95-18.65Q77.05-18.75 76.55-18.75L76.55-18.75Q76-18.75 74.9-18.65L74.9-18.65Q75.95-17.4 76.52-16 77.09-14.6 77.09-12.35L77.09-12.35Q77.09-10.65 75.84-8.8 74.59-6.95 72.9-5.9L72.9-5.9Q70.3-4.5 66.84-4.45L66.84-4.45Q66.45-4.05 66.17-3.73 65.9-3.4 65.9-3.2L65.9-3.2Q65.9-2.65 66.84-2.35 67.8-2.05 69.75-1.9L69.75-1.9Q71.25-1.8 73.07-1.28 74.9-0.75 75.95-0.1L75.95-0.1ZM67.15-8.55Q69.45-8.55 70.84-9.8 72.25-11.05 72.25-13.35L72.25-13.35Q72.25-15.1 71-16.2 69.75-17.3 67.8-17.3L67.8-17.3Q66.55-17.3 65.12-16.88 63.7-16.45 63.1-15.55L63.1-15.55Q62.8-15.15 62.5-14.03 62.2-12.9 62.2-12.3L62.2-12.3Q62.2-11.45 62.92-10.58 63.65-9.7 64.82-9.13 66-8.55 67.15-8.55L67.15-8.55ZM70.3 2.3Q67.55 2.05 66.42 1.83 65.3 1.6 64.59 1.3L64.59 1.3Q62.05 2.65 62.05 4.25L62.05 4.25Q62.05 5.75 63.6 6.53 65.15 7.3 67.15 7.3L67.15 7.3Q68.05 7.3 69.59 7.1 71.15 6.9 72.2 6.4L72.2 6.4Q72.9 6.05 73.25 5.73 73.59 5.4 73.59 4.55L73.59 4.55Q73.59 3.5 72.5 2.95 71.4 2.4 70.3 2.3L70.3 2.3ZM83.14-10.6Q83.14-12.5 83.84-14.43 84.54-16.35 85.69-17.95L85.69-17.95Q86.84-19.55 89.34-20.58 91.84-21.6 93.79-21.6L93.79-21.6Q95.79-21.6 97.87-21.05 99.94-20.5 100.74-19.35L100.74-19.35Q102.59-16.75 102.59-14.25L102.59-14.25Q102.59-12.9 102.02-11.95 101.44-11 100.39-9.9L100.39-9.9Q99.54-9 97.72-8.7 95.89-8.4 94.09-8.4L94.09-8.4Q92.94-8.4 91.29-8.63 89.64-8.85 88.09-9.2L88.09-9.2Q88.19-8.2 88.59-7.25 88.99-6.3 89.54-5.8L89.54-5.8Q90.54-4.85 91.62-4.6 92.69-4.35 94.39-4.35L94.39-4.35Q96.19-4.35 97.74-4.95L97.74-4.95Q98.99-5.4 99.79-5.4L99.79-5.4Q100.74-5.4 101.24-4.83 101.74-4.25 101.74-3.35L101.74-3.35Q101.74-2.1 100.29-1.3 98.84-0.5 96.97-0.13 95.09 0.25 93.94 0.25L93.94 0.25Q91.59 0.25 89.39-0.6 87.19-1.45 85.74-3L85.74-3Q84.54-4.4 83.84-6.38 83.14-8.35 83.14-10.6L83.14-10.6ZM94.04-17.35Q92.94-17.35 91.84-16.93 90.74-16.5 90.04-15.75L90.04-15.75Q89.14-14.8 88.82-14.23 88.49-13.65 88.39-12.65L88.39-12.65Q89.64-12.25 93.59-12.25L93.59-12.25Q95.74-12.25 96.92-12.9 98.09-13.55 98.09-14.6L98.09-14.6Q98.09-15.65 96.79-16.5 95.49-17.35 94.04-17.35L94.04-17.35ZM130.19-3.85Q130.44-3.75 130.99-3.6 131.54-3.45 131.79-3.3 132.04-3.15 132.04-2.85L132.04-2.85Q132.09-1.65 131.17-0.88 130.24-0.1 128.99-0.1L128.99-0.1Q127.04-0.1 125.94-1.15 124.84-2.2 124.34-4.35L124.34-4.35Q124.14-5.2 124.14-6.7L124.14-6.7Q124.14-7.55 124.24-9.45L124.24-9.45Q124.34-11.45 124.34-12.65L124.34-12.65Q124.34-14.4 123.37-15.73 122.39-17.05 120.64-17.05L120.64-17.05Q119.59-17.05 118.44-16.43 117.29-15.8 116.84-14.9L116.84-14.9Q116.09-13.45 115.79-11.75L115.79-11.75Q115.24-8.75 115.24-5.5L115.24-5.5Q115.24-3.95 115.29-3.1L115.29-3.1Q115.29-2.9 115.32-2.33 115.34-1.75 115.22-1.28 115.09-0.8 114.79-0.4L114.79-0.4Q114.54-0.15 114.02 0.03 113.49 0.2 113.04 0.2L113.04 0.2Q112.34 0.2 111.29-0.4 110.24-1 110.09-1.75L110.09-1.75 110.04-2.6Q110.04-3.05 110.14-3.65L110.14-3.65Q110.74-7.15 110.74-9.75L110.74-9.75Q110.74-10.9 110.69-11.55L110.69-11.55 110.64-13.9Q110.64-15.1 110.04-16.23 109.44-17.35 108.64-17.35L108.64-17.35Q108.39-17.35 107.94-17.18 107.49-17 107.19-17L107.19-17Q106.69-17 106.12-17.5 105.54-18 105.54-18.55L105.54-18.55Q105.54-19.6 106.24-20.25L106.24-20.25Q106.99-20.85 107.72-21.2 108.44-21.55 109.39-21.55L109.39-21.55Q110.19-21.55 110.69-21.4 111.19-21.25 112.04-20.75L112.04-20.75Q112.49-20.5 113.09-19.65 113.69-18.8 114.09-17.25L114.09-17.25Q115.39-19.65 117.32-20.63 119.24-21.6 122.24-21.6L122.24-21.6Q123.39-21.6 124.72-20.85 126.04-20.1 126.99-19.1L126.99-19.1Q127.89-18 128.49-16.38 129.09-14.75 129.09-13.45L129.09-13.45Q129.09-12.7 128.99-11L128.99-11Q128.84-9.65 128.84-8.15L128.84-8.15Q128.84-4.65 130.19-3.85L130.19-3.85ZM135.24-10.6Q135.24-12.5 135.94-14.43 136.64-16.35 137.79-17.95L137.79-17.95Q138.94-19.55 141.44-20.58 143.94-21.6 145.89-21.6L145.89-21.6Q147.89-21.6 149.96-21.05 152.04-20.5 152.84-19.35L152.84-19.35Q154.69-16.75 154.69-14.25L154.69-14.25Q154.69-12.9 154.11-11.95 153.54-11 152.49-9.9L152.49-9.9Q151.64-9 149.81-8.7 147.99-8.4 146.19-8.4L146.19-8.4Q145.04-8.4 143.39-8.63 141.74-8.85 140.19-9.2L140.19-9.2Q140.29-8.2 140.69-7.25 141.09-6.3 141.64-5.8L141.64-5.8Q142.64-4.85 143.71-4.6 144.79-4.35 146.49-4.35L146.49-4.35Q148.29-4.35 149.84-4.95L149.84-4.95Q151.09-5.4 151.89-5.4L151.89-5.4Q152.84-5.4 153.34-4.83 153.84-4.25 153.84-3.35L153.84-3.35Q153.84-2.1 152.39-1.3 150.94-0.5 149.06-0.13 147.19 0.25 146.04 0.25L146.04 0.25Q143.69 0.25 141.49-0.6 139.29-1.45 137.84-3L137.84-3Q136.64-4.4 135.94-6.38 135.24-8.35 135.24-10.6L135.24-10.6ZM146.14-17.35Q145.04-17.35 143.94-16.93 142.84-16.5 142.14-15.75L142.14-15.75Q141.24-14.8 140.91-14.23 140.59-13.65 140.49-12.65L140.49-12.65Q141.74-12.25 145.69-12.25L145.69-12.25Q147.84-12.25 149.01-12.9 150.19-13.55 150.19-14.6L150.19-14.6Q150.19-15.65 148.89-16.5 147.59-17.35 146.14-17.35L146.14-17.35Z" opacity="1" transform="matrix(1,0,0,1,0,0)" fill="#000000" class="wordmark-text-0" data-fill-palette-color="primary" id="text-0"></path></svg></g></svg></g></svg></g></svg></g><g transform="matrix(1,0,0,1,63.52389927794075,0)"><svg viewBox="0 0 64.9522014441185 75.23766567754699" height="75.23766567754699" width="64.9522014441185"><g><svg xmlns="http://www.w3.org/2000/svg" xmlns:xlink="http://www.w3.org/1999/xlink" version="1.1" x="0" y="0" viewBox="9.63800048828125 3.246999979019165 80.7239990234375 93.50699615478516" enable-background="new 0 0 100 100" xml:space="preserve" height="75.23766567754699" width="64.9522014441185" class="icon-icon-0" data-fill-palette-color="accent" id="icon-0"><g fill="#bf2051" data-fill-palette-color="accent"><g fill="#bf2051" data-fill-palette-color="accent"><polygon points="36.703,11.011 9.638,26.636 9.638,38.757 36.703,23.131 63.767,38.757 63.767,26.636   " fill="#000000" data-fill-palette-color="accent"></polygon></g><g fill="#bf2051" data-fill-palette-color="accent"><polygon points="63.298,89.092 36.233,73.467 36.233,61.348 63.298,76.973 90.362,61.348 90.362,73.467   " fill="#000000" data-fill-palette-color="accent"></polygon></g><g fill="#bf2051" data-fill-palette-color="accent"><polygon points="9.638,42.012 36.703,26.386 47.198,32.446 20.134,48.072 20.134,79.324 9.638,73.264   " fill="#000000" data-fill-palette-color="accent"></polygon></g><g fill="#bf2051" data-fill-palette-color="accent"><polygon points="77.083,18.872 50.018,3.247 39.522,9.307 66.586,24.932 66.586,56.184 77.083,50.124   " fill="#000000" data-fill-palette-color="accent"></polygon></g><g fill="#bf2051" data-fill-palette-color="accent"><polygon points="23.01,81.127 23.011,49.876 33.507,43.816 33.507,75.068 60.571,90.693 50.075,96.754   " fill="#000000" data-fill-palette-color="accent"></polygon></g><g fill="#bf2051" data-fill-palette-color="accent"><polygon points="90.362,58.092 90.362,26.84 79.866,20.78 79.866,52.031 52.802,67.658 63.298,73.719   " fill="#000000" data-fill-palette-color="accent"></polygon></g></g></svg></g></svg></g><g></g></svg></g></svg></g></svg></g></svg></g><defs></defs></svg><rect width="320" height="360" fill="none" stroke="none" visibility="hidden"></rect></g></svg></g></svg>